<?xml version="1.0" standalone="no"?>
<!DOCTYPE svg PUBLIC "-//W3C//DTD SVG 20010904//EN"
 "http://www.w3.org/TR/2001/REC-SVG-20010904/DTD/svg10.dtd">
<svg version="1.0" xmlns="http://www.w3.org/2000/svg"
 width="700.000000pt" height="700.000000pt" viewBox="0 0 700.000000 700.000000"
 preserveAspectRatio="xMidYMid meet">
<metadata>
Created by potrace 1.14, written by Peter Selinger 2001-2017
</metadata>
<g transform="translate(0.000000,700.000000) scale(0.100000,-0.100000)"
fill="#000000" stroke="none">
<path d="M3060 6670 l0 -110 -215 0 -214 0 -3 -107 -3 -108 -107 -3 -108 -3
-1 -92 c-1 -51 -1 -129 1 -174 1 -45 -1 -100 -5 -122 l-7 -41 -103 0 -104 0
-3 -207 c-2 -115 -2 -362 0 -550 l3 -343 104 0 103 0 4 -102 c2 -57 2 -106 0
-110 -2 -5 -50 -8 -108 -8 l-104 0 0 -215 0 -215 110 0 110 0 0 -110 0 -110
-110 0 -110 0 0 -110 0 -110 -110 0 -110 0 0 110 0 110 -220 0 -220 0 0 -110
0 -110 220 0 220 0 0 -110 0 -110 -220 0 -220 0 0 -110 0 -110 -110 0 -110 0
0 -110 0 -110 -655 0 -655 0 0 -1420 0 -1420 765 0 765 0 0 110 0 110 1970 0
1970 0 0 -110 0 -110 765 0 765 0 0 1420 0 1420 -655 0 -655 0 0 110 0 110
-110 0 -110 0 0 110 0 110 -220 0 -220 0 0 110 0 110 220 0 220 0 0 110 0 110
-220 0 -220 0 0 -110 0 -110 -110 0 -110 0 0 110 0 110 -110 0 -110 0 0 110 0
110 110 0 110 0 0 215 0 215 -104 0 c-58 0 -106 3 -108 8 -2 4 -2 53 0 110 l4
102 103 0 104 0 3 343 c2 188 2 435 0 550 l-3 207 -104 0 -103 0 -7 41 c-4 22
-6 77 -5 122 2 45 2 123 1 174 l-1 92 -107 3 -108 3 -3 108 -3 107 -214 0
-215 0 0 110 0 110 -440 0 -440 0 0 -110z m660 -215 l0 -104 108 -3 107 -3 3
-107 3 -108 -79 0 c-44 0 -94 -3 -111 -6 l-31 -6 0 111 0 111 -220 0 -220 0 0
-111 0 -111 -31 6 c-17 3 -67 6 -111 6 l-79 0 3 108 3 107 108 3 107 3 0 104
0 105 220 0 220 0 0 -105z m-660 -1638 l0 -222 440 0 440 0 0 223 0 223 108
-3 107 -3 3 -112 3 -113 104 0 105 0 0 -110 0 -110 -215 0 -215 0 0 -105 0
-105 -110 0 -110 0 0 -110 0 -110 -220 0 -220 0 0 110 0 110 -110 0 -110 0 0
105 0 105 -215 0 -215 0 0 110 0 110 105 0 105 0 0 108 c0 60 3 112 7 115 3 4
53 7 110 7 l103 0 0 -223z m660 103 l0 -110 -220 0 -220 0 0 110 0 110 220 0
220 0 0 -110z m-880 -1420 l0 -220 -215 0 -214 0 -3 -106 -3 -106 -217 -5
-218 -4 0 220 0 221 104 0 104 0 6 31 c3 17 6 67 6 110 l0 79 325 0 325 0 0
-220z m1970 141 c0 -43 3 -93 6 -110 l7 -31 103 0 104 0 0 -221 0 -220 -217 4
-218 5 -3 106 -3 106 -214 0 -215 0 0 220 0 220 325 0 325 0 0 -79z m-1750
-906 l0 -115 -104 0 -104 0 -7 -215 -7 -215 -104 0 -104 0 -1 113 c-1 61 -1
159 -1 217 l-1 105 107 3 106 3 0 103 c0 56 3 106 7 109 3 4 53 7 110 7 l103
0 0 -115z m655 2 l0 -109 -215 0 -215 0 -3 98 c-1 54 0 104 2 111 5 11 48 13
218 11 l213 -3 0 -108z m443 1 l3 -107 106 -3 106 -3 -1 -105 c0 -58 0 -156
-1 -217 l-1 -113 -104 0 -104 0 -7 215 -7 215 -104 0 -104 0 0 115 0 116 108
-3 107 -3 3 -107z m-878 -438 l0 -110 220 0 220 0 0 110 0 111 108 -3 107 -3
3 -114 3 -113 107 3 107 4 3 -107 3 -108 -661 0 -661 0 3 108 3 107 108 -4
107 -3 0 109 c0 60 3 113 7 116 3 4 53 7 110 7 l103 0 0 -110z m-1970 -660 l0
-110 110 0 110 0 0 -110 0 -110 1970 0 1970 0 0 110 0 110 110 0 110 0 0 110
0 110 103 0 104 0 6 -137 c4 -75 7 -174 7 -220 l0 -83 110 0 110 0 0 -110 0
-110 105 0 105 0 0 -110 0 -110 -105 0 -105 0 0 -105 0 -105 -2630 0 -2630 0
0 105 0 105 -105 0 -105 0 0 110 0 110 105 0 105 0 0 110 0 110 110 0 110 0 0
83 c0 46 3 145 7 220 l6 137 104 0 103 0 0 -110z"/>
</g>
</svg>
